<svg width="222" height="22" viewBox="0 0 222 22" fill="none" xmlns="http://www.w3.org/2000/svg">
<path d="M19.5719 6.03382H13.0063V21.6912H6.62819V6.03382H0V1.30882H19.5719V6.03382Z" fill="#0A0D1F"/>
<path d="M45.8001 16.9662V21.6912H28.7606V1.30882H45.3936V6.03382H35.1387V9.33823H43.3302V13.7235H35.1387V16.9662H45.8001Z" fill="#0A0D1F"/>
<path d="M73.7198 15.6382C73.157 17.8206 72.0627 19.4265 70.4369 20.4559C68.832 21.4853 66.831 22 64.434 22C62.308 22 60.4634 21.5882 58.9001 20.7647C57.3577 19.9412 56.1697 18.7368 55.3359 17.1515C54.5022 15.5662 54.0853 13.6824 54.0853 11.5C54.0853 9.31765 54.5022 7.44412 55.3359 5.87941C56.1697 4.29412 57.3577 3.08971 58.9001 2.26618C60.4425 1.42206 62.2768 1 64.4028 1C66.7372 1 68.7278 1.49412 70.3744 2.48235C72.021 3.45 73.0736 4.92206 73.5322 6.89853L67.9983 9.09118C67.769 7.83529 67.3938 6.98088 66.8727 6.52794C66.3516 6.05441 65.5909 5.81765 64.5904 5.81765C63.3189 5.81765 62.3393 6.29118 61.6515 7.23823C60.9845 8.18529 60.651 9.60588 60.651 11.5C60.651 15.2882 61.9433 17.1824 64.5278 17.1824C65.57 17.1824 66.3621 16.9456 66.904 16.4721C67.4668 15.9779 67.8419 15.1956 68.0295 14.125L73.7198 15.6382Z" fill="#0A0D1F"/>
<path d="M102.131 1.30882V21.6912H95.7213V13.7853H89.0306V21.6912H82.6525V1.30882H89.0306V9.06029H95.7213V1.30882H102.131Z" fill="#0A0D1F"/>
<path d="M123.582 21.6912H116.516L110.607 1.30882H117.485L120.393 16.7191L123.645 1.30882H129.272L132.68 16.6574L135.525 1.30882H142.154L136.244 21.6912H129.366L127.365 12.9824L126.521 7.88676H126.427L125.583 12.9824L123.582 21.6912Z" fill="#0A0D1F"/>
<path d="M196.159 16.9662V21.6912H179.964V1.30882H186.342V16.9662H196.159Z" fill="#0A0D1F"/>
<path d="M211.776 6.03382V9.58529H219.968V14.3103H211.776V21.6912H205.398V1.30882H222V6.03382H211.776Z" fill="#0A0D1F"/>
<path d="M170 11C170 17.0751 165.075 22 159 22C152.925 22 148 17.0751 148 11C148 4.92487 152.925 0 159 0C165.075 0 170 4.92487 170 11Z" fill="#63FFD9"/>
</svg>
